<svg xmlns="http://www.w3.org/2000/svg" xmlns:svg="http://www.w3.org/2000/svg" id="svg2" width="744.094" height="1052.362" version="1.1"><metadata id="metadata7"/><g id="layer1"><rect style="color:#000;fill:#fff;fill-opacity:1;fill-rule:nonzero;stroke:#000;stroke-width:.75;stroke-linecap:butt;stroke-linejoin:miter;stroke-miterlimit:4;stroke-opacity:1;stroke-dasharray:none;stroke-dashoffset:0;marker:none;visibility:visible;display:inline;overflow:visible;enable-background:accumulate" id="rect2822" width="210" height="68.571" x="133.285" y="65.219" ry="15.714"/><text style="font-size:16;font-style:normal;font-variant:normal;font-weight:400;font-stretch:normal;text-align:start;line-height:100%;writing-mode:lr-tb;text-anchor:start;fill:#000;fill-opacity:1;stroke:none;font-family:Lucida Sans" id="text2824" x="200" y="108.076" xml:space="preserve"><tspan id="tspan2826" x="200" y="108.076">PhoneCall</tspan></text><rect style="color:#000;fill:#fff;fill-opacity:1;fill-rule:nonzero;stroke:#000;stroke-width:.75;stroke-linecap:butt;stroke-linejoin:miter;stroke-miterlimit:4;stroke-opacity:1;stroke-dasharray:none;stroke-dashoffset:0;marker:none;visibility:visible;display:inline;overflow:visible;enable-background:accumulate" id="rect2822-1" width="210" height="68.571" x="133.571" y="173.076" ry="15.714"/><rect style="color:#000;fill:#fff;fill-opacity:1;fill-rule:nonzero;stroke:#000;stroke-width:.75;stroke-linecap:butt;stroke-linejoin:miter;stroke-miterlimit:4;stroke-opacity:1;stroke-dasharray:none;stroke-dashoffset:0;marker:none;visibility:visible;display:inline;overflow:visible;enable-background:accumulate" id="rect2856" width="80.714" height="49.286" x="147.143" y="182.362" ry="15.714"/><text style="font-size:16px;font-style:normal;font-variant:normal;font-weight:400;font-stretch:normal;text-align:start;line-height:100%;writing-mode:lr-tb;text-anchor:start;fill:#000;fill-opacity:1;stroke:none;font-family:Lucida Sans" id="text2824-6" x="159.572" y="213.126" xml:space="preserve"><tspan id="tspan2826-9" x="159.572" y="213.126">HalfCall</tspan></text><rect style="color:#000;fill:#fff;fill-opacity:1;fill-rule:nonzero;stroke:#000;stroke-width:.75;stroke-linecap:butt;stroke-linejoin:miter;stroke-miterlimit:4;stroke-opacity:1;stroke-dasharray:none;stroke-dashoffset:0;marker:none;visibility:visible;display:inline;overflow:visible;enable-background:accumulate" id="rect2856-5" width="80.714" height="49.286" x="246.429" y="182.362" ry="15.714"/><text style="font-size:16px;font-style:normal;font-variant:normal;font-weight:400;font-stretch:normal;text-align:start;line-height:100%;writing-mode:lr-tb;text-anchor:start;fill:#000;fill-opacity:1;stroke:none;font-family:Lucida Sans" id="text2824-6-4" x="258.858" y="213.126" xml:space="preserve"><tspan id="tspan2826-9-5" x="258.858" y="213.126">HalfCall</tspan></text><rect style="color:#000;fill:#fff;fill-opacity:1;fill-rule:nonzero;stroke:#000;stroke-width:.75;stroke-linecap:butt;stroke-linejoin:miter;stroke-miterlimit:4;stroke-opacity:1;stroke-dasharray:none;stroke-dashoffset:0;marker:none;visibility:visible;display:inline;overflow:visible;enable-background:accumulate" id="rect2822-1-7" width="210" height="68.571" x="133.571" y="268.791" ry="15.714"/><rect style="color:#000;fill:#fff;fill-opacity:1;fill-rule:nonzero;stroke:#000;stroke-width:.75;stroke-linecap:butt;stroke-linejoin:miter;stroke-miterlimit:4;stroke-opacity:1;stroke-dasharray:none;stroke-dashoffset:0;marker:none;visibility:visible;display:inline;overflow:visible;enable-background:accumulate" id="rect2977" width="192.143" height="59.286" x="140.714" y="273.791" ry="15.714"/><path style="color:#000;fill:#999;fill-opacity:1;fill-rule:nonzero;stroke:#000;stroke-width:.75;stroke-linecap:butt;stroke-linejoin:miter;stroke-miterlimit:4;stroke-dashoffset:0;stroke-opacity:1;marker:none;visibility:visible;display:inline;overflow:visible;enable-background:accumulate" id="rect3001" d="m 252.14286,273.79074 64.99999,0 c 8.70571,0 15.71428,7.00857 15.71428,15.71429 l 0,27.85709 c 0,8.70571 -7.00857,15.71428 -15.71428,15.71428 l -64.99999,0 c -8.70572,0 -20.11701,-4.98589 -20.42586,-10.99002 -0.30885,-6.00412 2.14648,-7.80401 4.64411,-9.37459 2.49762,-1.57058 4.31144,-4.24877 4.48053,-8.41089 0.16909,-4.16213 -2.60941,-7.91405 -4.7742,-8.36378 -2.70252,-0.56144 -4.41367,-3.41239 -4.35044,-8.02129 0.0632,-4.6089 7.93206,-13.87255 20.42586,-14.12509 z"/><rect style="color:#000;fill:#fff;fill-opacity:1;fill-rule:nonzero;stroke:#000;stroke-width:.75;stroke-linecap:butt;stroke-linejoin:miter;stroke-miterlimit:4;stroke-opacity:1;stroke-dasharray:none;stroke-dashoffset:0;marker:none;visibility:visible;display:inline;overflow:visible;enable-background:accumulate" id="rect2856-8" width="80.714" height="49.286" x="147.143" y="278.076" ry="15.714"/><text style="font-size:16px;font-style:normal;font-variant:normal;font-weight:400;font-stretch:normal;text-align:start;line-height:100%;writing-mode:lr-tb;text-anchor:start;fill:#000;fill-opacity:1;stroke:none;font-family:Lucida Sans" id="text2824-6-2" x="159.572" y="308.84" xml:space="preserve"><tspan id="tspan2826-9-8" x="159.572" y="308.84">HalfCall</tspan></text><rect style="color:#000;fill:#fff;fill-opacity:1;fill-rule:nonzero;stroke:#000;stroke-width:.75;stroke-linecap:butt;stroke-linejoin:miter;stroke-miterlimit:4;stroke-opacity:1;stroke-dasharray:none;stroke-dashoffset:0;marker:none;visibility:visible;display:inline;overflow:visible;enable-background:accumulate" id="rect2856-5-2" width="80.714" height="49.286" x="246.429" y="278.076" ry="15.714"/><path id="path3135" d="m 190.16121,406.62219 0,-27.27412 c 0,0 11.11165,6.56599 17.17257,6.56599 6.06091,0 14.14216,-6.06092 14.14216,-6.06092 l 0,27.27413 c 0,0 -8.58632,-6.56601 -14.64724,-6.56601 -6.06091,0 -16.66749,6.06093 -16.66749,6.06093 z" style="color:#000;fill:gray;fill-opacity:1;fill-rule:nonzero;stroke:#000;stroke-width:.75;stroke-linecap:butt;stroke-linejoin:miter;stroke-miterlimit:4;stroke-opacity:1;stroke-dashoffset:0;marker:none;visibility:visible;display:inline;overflow:visible;enable-background:accumulate"/><path style="color:#000;fill:gray;fill-opacity:1;fill-rule:nonzero;stroke:#000;stroke-width:.75;stroke-linecap:butt;stroke-linejoin:miter;stroke-miterlimit:4;stroke-opacity:1;stroke-dashoffset:0;marker:none;visibility:visible;display:inline;overflow:visible;enable-background:accumulate" id="path3137" d="m 279.55971,379.85315 0,27.27412 c 0,0 -11.11165,-6.56599 -17.17257,-6.56599 -6.06091,0 -14.14216,6.06092 -14.14216,6.06092 l 0,-27.27413 c 0,0 8.58632,6.56601 14.64724,6.56601 6.06091,0 16.66749,-6.06093 16.66749,-6.06093 z"/><path style="color:#000;fill:#b3b3b3;fill-opacity:1;fill-rule:nonzero;stroke:#000;stroke-width:.75;stroke-linecap:butt;stroke-linejoin:miter;stroke-miterlimit:4;stroke-opacity:1;stroke-dasharray:none;stroke-dashoffset:0;marker:none;visibility:visible;display:inline;overflow:visible;enable-background:accumulate" id="path3074" d="m 307.59145,301.56631 a 20.455587,20.455587 0 1 1 -40.91117,0 20.455587,20.455587 0 1 1 40.91117,0 z" transform="translate(-52.500809,92.274048)"/><text style="font-size:16px;font-style:normal;font-variant:normal;font-weight:400;font-stretch:normal;text-align:start;line-height:100%;writing-mode:lr-tb;text-anchor:start;fill:#000;fill-opacity:1;stroke:none;font-family:Lucida Sans" id="text2824-6-4-3" x="258.858" y="308.84" xml:space="preserve"><tspan id="tspan2826-9-5-4" x="258.858" y="308.84">HalfCall</tspan></text><rect style="color:#000;fill:#fff;fill-opacity:1;fill-rule:nonzero;stroke:#000;stroke-width:.75;stroke-linecap:butt;stroke-linejoin:miter;stroke-miterlimit:4;stroke-opacity:1;stroke-dasharray:none;stroke-dashoffset:0;marker:none;visibility:visible;display:inline;overflow:visible;enable-background:accumulate" id="rect2856-8-9" width="80.714" height="49.286" x="111.525" y="368.09" ry="15.714"/><text style="font-size:16px;font-style:normal;font-variant:normal;font-weight:400;font-stretch:normal;text-align:start;line-height:100%;writing-mode:lr-tb;text-anchor:start;fill:#000;fill-opacity:1;stroke:none;font-family:Lucida Sans" id="text2824-6-2-1" x="123.955" y="398.854" xml:space="preserve"><tspan id="tspan2826-9-8-1" x="123.955" y="398.854">HalfCall</tspan></text><rect style="color:#000;fill:#fff;fill-opacity:1;fill-rule:nonzero;stroke:#000;stroke-width:.75;stroke-linecap:butt;stroke-linejoin:miter;stroke-miterlimit:4;stroke-opacity:1;stroke-dasharray:none;stroke-dashoffset:0;marker:none;visibility:visible;display:inline;overflow:visible;enable-background:accumulate" id="rect2856-5-2-5" width="80.714" height="49.286" x="276.976" y="369.1" ry="15.714"/><text style="font-size:16px;font-style:normal;font-variant:normal;font-weight:400;font-stretch:normal;text-align:start;line-height:100%;writing-mode:lr-tb;text-anchor:start;fill:#000;fill-opacity:1;stroke:none;font-family:Lucida Sans" id="text2824-6-4-3-7" x="289.405" y="399.864" xml:space="preserve"><tspan id="tspan2826-9-5-4-9" x="289.405" y="399.864">HalfCall</tspan></text><text id="text3070" x="220.424" y="399.864" xml:space="preserve" style="font-size:16px;font-style:normal;font-variant:normal;font-weight:400;font-stretch:normal;text-align:start;line-height:100%;writing-mode:lr-tb;text-anchor:start;fill:#000;fill-opacity:1;stroke:none;font-family:Lucida Sans"><tspan id="tspan3072" x="220.424" y="399.864">Call</tspan></text><path style="color:#000;fill:gray;fill-opacity:1;fill-rule:nonzero;stroke:#000;stroke-width:.75;stroke-linecap:butt;stroke-linejoin:miter;stroke-miterlimit:4;stroke-dashoffset:0;stroke-opacity:1;marker:none;visibility:visible;display:inline;overflow:visible;enable-background:accumulate" id="rect3128" d="m 228.29448,550.82147 27.27412,0 c 0,0 -6.56599,11.11165 -6.56599,17.17257 0,6.06091 6.06091,14.14216 6.06091,14.14216 l -27.27412,0 c 0,0 6.566,-8.58632 6.566,-14.64724 0,-6.06091 -6.06092,-16.66749 -6.06092,-16.66749 z"/><path style="color:#000;fill:gray;fill-opacity:1;fill-rule:nonzero;stroke:#000;stroke-width:.75;stroke-linecap:butt;stroke-linejoin:miter;stroke-miterlimit:4;stroke-opacity:1;stroke-dashoffset:0;marker:none;visibility:visible;display:inline;overflow:visible;enable-background:accumulate" id="path3133" d="m 256.68203,548.01814 -13.63706,-23.62008 c 0,0 12.90597,0.13049 18.15488,-2.89997 5.2489,-3.03046 9.21701,-12.31999 9.21701,-12.31999 l 13.63706,23.62008 c 0,0 -10.71897,-1.39316 -15.96788,1.6373 -5.2489,3.03046 -11.40401,13.58266 -11.40401,13.58266 z"/><path id="path3131" d="m 240.0605,524.83546 -13.63706,23.62008 c 0,0 -6.33998,-11.24214 -11.58889,-14.2726 -5.2489,-3.03045 -15.27793,-1.82217 -15.27793,-1.82217 l 13.63706,-23.62008 c 0,0 4.15298,9.97948 9.40189,13.00994 5.2489,3.03045 17.46493,3.08483 17.46493,3.08483 z" style="color:#000;fill:gray;fill-opacity:1;fill-rule:nonzero;stroke:#000;stroke-width:.75;stroke-linecap:butt;stroke-linejoin:miter;stroke-miterlimit:4;stroke-opacity:1;stroke-dashoffset:0;marker:none;visibility:visible;display:inline;overflow:visible;enable-background:accumulate"/><path style="color:#000;fill:#b3b3b3;fill-opacity:1;fill-rule:nonzero;stroke:#000;stroke-width:.75;stroke-linecap:butt;stroke-linejoin:miter;stroke-miterlimit:4;stroke-opacity:1;stroke-dasharray:none;stroke-dashoffset:0;marker:none;visibility:visible;display:inline;overflow:visible;enable-background:accumulate" id="path3074-8" d="m 307.59145,301.56631 a 20.455587,20.455587 0 1 1 -40.91117,0 20.455587,20.455587 0 1 1 40.91117,0 z" transform="translate(-44.924659,237.73603)"/><rect style="color:#000;fill:#fff;fill-opacity:1;fill-rule:nonzero;stroke:#000;stroke-width:.75;stroke-linecap:butt;stroke-linejoin:miter;stroke-miterlimit:4;stroke-opacity:1;stroke-dasharray:none;stroke-dashoffset:0;marker:none;visibility:visible;display:inline;overflow:visible;enable-background:accumulate" id="rect2856-8-9-2" width="80.714" height="49.286" x="359.409" y="321.682" ry="15.714" transform="matrix(0.8660254,0.5,-0.5,0.8660254,0,0)"/><text style="font-size:16px;font-style:normal;font-variant:normal;font-weight:400;font-stretch:normal;text-align:start;line-height:100%;writing-mode:lr-tb;text-anchor:start;fill:#000;fill-opacity:1;stroke:none;font-family:Lucida Sans" id="text2824-6-2-1-1" x="371.838" y="352.445" transform="matrix(0.8660254,0.5,-0.5,0.8660254,0,0)" xml:space="preserve"><tspan id="tspan2826-9-8-1-4" x="371.838" y="352.445">HalfCall</tspan></text><rect style="color:#000;fill:#fff;fill-opacity:1;fill-rule:nonzero;stroke:#000;stroke-width:.75;stroke-linecap:butt;stroke-linejoin:miter;stroke-miterlimit:4;stroke-opacity:1;stroke-dasharray:none;stroke-dashoffset:0;marker:none;visibility:visible;display:inline;overflow:visible;enable-background:accumulate" id="rect2856-5-2-5-7" width="80.714" height="49.286" x="-23.038" y="563.361" ry="15.714" transform="matrix(0.8660254,-0.5,0.5,0.8660254,0,0)"/><text style="font-size:16px;font-style:normal;font-variant:normal;font-weight:400;font-stretch:normal;text-align:start;line-height:100%;writing-mode:lr-tb;text-anchor:start;fill:#000;fill-opacity:1;stroke:none;font-family:Lucida Sans" id="text2824-6-4-3-7-9" x="-10.609" y="594.125" transform="matrix(0.8660254,-0.5,0.5,0.8660254,0,0)" xml:space="preserve"><tspan id="tspan2826-9-5-4-9-9" x="-10.609" y="594.125">HalfCall</tspan></text><text id="text3070-0" x="228" y="545.326" xml:space="preserve" style="font-size:16px;font-style:normal;font-variant:normal;font-weight:400;font-stretch:normal;text-align:start;line-height:100%;writing-mode:lr-tb;text-anchor:start;fill:#000;fill-opacity:1;stroke:none;font-family:Lucida Sans"><tspan id="tspan3072-1" x="228" y="545.326">Call</tspan></text><rect id="rect3122" width="80.714" height="49.286" x="-659.364" y="217.648" ry="15.714" transform="matrix(0,-1,1,0,0,0)" style="color:#000;fill:#fff;fill-opacity:1;fill-rule:nonzero;stroke:#000;stroke-width:.75;stroke-linecap:butt;stroke-linejoin:miter;stroke-miterlimit:4;stroke-opacity:1;stroke-dasharray:none;stroke-dashoffset:0;marker:none;visibility:visible;display:inline;overflow:visible;enable-background:accumulate"/><text id="text3124" x="-646.935" y="248.412" transform="matrix(0,-1,1,0,0,0)" xml:space="preserve" style="font-size:16px;font-style:normal;font-variant:normal;font-weight:400;font-stretch:normal;text-align:start;line-height:100%;writing-mode:lr-tb;text-anchor:start;fill:#000;fill-opacity:1;stroke:none;font-family:Lucida Sans"><tspan id="tspan3126" x="-646.935" y="248.412">HalfCall</tspan></text></g></svg>